<svg width="112" height="34" viewBox="0 0 112 34" fill="none" xmlns="http://www.w3.org/2000/svg">
<rect width="112" height="34" rx="10" fill="#5D5FEF"/>
<path d="M22 7H18.7C16.8 7 15.3 8.5 15.3 10.3C15.3 12.1 16.8 13.6 18.6 13.6H22V7Z" stroke="white" stroke-width="1.5" stroke-miterlimit="10"/>
<path d="M21.9999 13.7H18.6999C16.8999 13.7 15.3999 15.2 15.3999 17C15.3999 18.8 16.8999 20.3 18.6999 20.3H21.9999V13.7Z" stroke="white" stroke-width="1.5" stroke-miterlimit="10"/>
<path d="M21.9999 20.3H18.6999C16.8999 20.3 15.3999 21.8 15.3999 23.6C15.3999 25.4 16.8999 26.9 18.6999 26.9C20.4999 26.9 21.9999 25.4 21.9999 23.6V20.3Z" stroke="white" stroke-width="1.5" stroke-miterlimit="10"/>
<path d="M22 7H25.3C27.1 7 28.6 8.5 28.6 10.3C28.6 12.1 27.1 13.6 25.3 13.6H22V7Z" stroke="white" stroke-width="1.5" stroke-miterlimit="10"/>
<path d="M25.3 13.7C27.1 13.7 28.6 15.2 28.6 17C28.6 18.8 27.1 20.3 25.3 20.3C23.5 20.3 22 18.8 22 17C22 15.2 23.5 13.7 25.3 13.7Z" stroke="white" stroke-width="1.5" stroke-miterlimit="10"/>
<path d="M59.25 21.75H57.5C56.12 21.75 55 20.63 55 19.25C55 18.84 55.34 18.5 55.75 18.5C56.16 18.5 56.5 18.84 56.5 19.25C56.5 19.8 56.95 20.25 57.5 20.25H59.25C59.8 20.25 60.25 19.8 60.25 19.25C60.25 18.7 59.8 18.25 59.25 18.25H57.5C56.12 18.25 55 17.13 55 15.75C55 14.37 56.12 13.25 57.5 13.25H59.25C60.63 13.25 61.75 14.37 61.75 15.75C61.75 16.16 61.41 16.5 61 16.5C60.59 16.5 60.25 16.16 60.25 15.75C60.25 15.2 59.8 14.75 59.25 14.75H57.5C56.95 14.75 56.5 15.2 56.5 15.75C56.5 16.3 56.95 16.75 57.5 16.75H59.25C60.63 16.75 61.75 17.87 61.75 19.25C61.75 20.63 60.63 21.75 59.25 21.75Z" fill="white"/>
<path d="M56 27.61C55.71 27.61 55.42 27.54 55.15 27.39L53.67 26.68C53.3 26.5 53.14 26.05 53.32 25.68C53.5 25.31 53.94 25.15 54.32 25.33L55.83 26.06C55.94 26.12 56.04 26.12 56.11 26.08L64.11 21.64C64.19 21.6 64.24 21.51 64.24 21.42V12.6C64.24 12.51 64.19 12.43 64.11 12.38L56.11 7.94003C56.03 7.90003 55.94 7.90003 55.87 7.94003L47.87 12.38C47.79 12.42 47.74 12.51 47.74 12.6V21.42C47.74 21.51 47.79 21.59 47.87 21.64L50.38 23.03C50.77 23.25 51.23 23.24 51.62 23.01C52.01 22.78 52.24 22.38 52.24 21.93L52.25 14C52.25 13.59 52.59 13.25 53 13.25C53.41 13.25 53.75 13.59 53.75 14L53.74 21.93C53.74 22.91 53.23 23.8 52.38 24.3C51.53 24.8 50.51 24.81 49.65 24.33L47.14 22.94C46.58 22.63 46.24 22.04 46.24 21.41V12.59C46.24 11.96 46.58 11.37 47.14 11.06L55.14 6.62002C55.67 6.32002 56.31 6.32002 56.84 6.62002L64.84 11.06C65.4 11.37 65.74 11.96 65.74 12.59V21.41C65.74 22.04 65.4 22.63 64.84 22.94L56.84 27.38C56.58 27.53 56.29 27.61 56 27.61Z" fill="white"/>
<path d="M85.6001 12.6001V8.9001C85.6001 8.1001 86.2001 7.4001 87.0001 7.2001C89.0001 6.9001 91.0001 6.9001 93.0001 7.2001C93.8001 7.3001 94.4001 8.0001 94.4001 8.9001V14.8001C94.4001 16.0001 93.4001 17.0001 92.2001 17.0001H87.8001C86.6001 17.0001 85.6001 18.0001 85.6001 19.2001V25.1001C85.6001 25.9001 86.2001 26.6001 87.0001 26.8001C89.0001 27.1001 91.0001 27.1001 93.0001 26.8001C93.8001 26.7001 94.4001 26.0001 94.4001 25.1001V21.4001" stroke="white" stroke-width="1.5" stroke-linecap="round" stroke-linejoin="round"/>
<path d="M94.4 12.6001H98.1C98.9 12.6001 99.6 13.2001 99.8 14.0001C100.1 16.0001 100.1 18.0001 99.8 20.0001C99.7 20.8001 99 21.4001 98.1 21.4001H90" stroke="white" stroke-width="1.5" stroke-linecap="round" stroke-linejoin="round"/>
<path d="M90.0001 12.6001H81.9001C81.1001 12.6001 80.4001 13.2001 80.2001 14.0001C79.9001 16.0001 79.9001 18.0001 80.2001 20.0001C80.3001 20.8001 81.0001 21.4001 81.9001 21.4001H85.6001" stroke="white" stroke-width="1.5" stroke-linecap="round" stroke-linejoin="round"/>
<path d="M88 9.8501V9.8501" stroke="white" stroke-width="1.5" stroke-linecap="round" stroke-linejoin="round"/>
<path d="M92 24.1499V24.1499" stroke="white" stroke-width="1.5" stroke-linecap="round" stroke-linejoin="round"/>
</svg>
