<svg width="24" height="24" viewBox="0 0 24 24" fill="none" xmlns="http://www.w3.org/2000/svg">
<path d="M15.24 1H8.76C6 1 5 2 5 4.81V19.19C5 22 6 23 8.76 23H15.23C18 23 19 22 19 19.19V4.81C19 2 18 1 15.24 1ZM12 21.3C11.04 21.3 10.25 20.51 10.25 19.55C10.25 18.59 11.04 17.8 12 17.8C12.96 17.8 13.75 18.59 13.75 19.55C13.75 20.51 12.96 21.3 12 21.3ZM14 4.25H10C9.59 4.25 9.25 3.91 9.25 3.5C9.25 3.09 9.59 2.75 10 2.75H14C14.41 2.75 14.75 3.09 14.75 3.5C14.75 3.91 14.41 4.25 14 4.25Z" fill="#292D32"/>
</svg>
